<svg id="visual" viewBox="0 0 900 600" width="900" height="600" xmlns="http://www.w3.org/2000/svg" xmlns:xlink="http://www.w3.org/1999/xlink" version="1.1"><rect x="0" y="0" width="900" height="600" fill="#090909"></rect><g fill="none" stroke="#2f2f2f" stroke-width="2"><circle r="12" cx="46" cy="365"></circle><circle r="-1" cx="459" cy="186"></circle><circle r="6" cx="222" cy="234"></circle><circle r="7" cx="684" cy="370"></circle><circle r="1" cx="720" cy="496"></circle><circle r="0" cx="38" cy="498"></circle><circle r="9" cx="727" cy="240"></circle><circle r="1" cx="289" cy="330"></circle><circle r="7" cx="326" cy="97"></circle><circle r="8" cx="302" cy="214"></circle><circle r="3" cx="217" cy="422"></circle><circle r="-2" cx="686" cy="217"></circle><circle r="6" cx="363" cy="498"></circle><circle r="-1" cx="97" cy="550"></circle><circle r="8" cx="232" cy="171"></circle><circle r="1" cx="136" cy="90"></circle><circle r="8" cx="434" cy="361"></circle><circle r="-2" cx="641" cy="77"></circle><circle r="2" cx="381" cy="559"></circle><circle r="3" cx="31" cy="306"></circle><circle r="10" cx="134" cy="312"></circle><circle r="9" cx="880" cy="340"></circle><circle r="7" cx="514" cy="531"></circle><circle r="1" cx="625" cy="528"></circle><circle r="5" cx="851" cy="393"></circle><circle r="1" cx="415" cy="509"></circle><circle r="3" cx="143" cy="471"></circle><circle r="3" cx="458" cy="84"></circle><circle r="4" cx="263" cy="137"></circle><circle r="-2" cx="872" cy="557"></circle><circle r="4" cx="625" cy="343"></circle><circle r="8" cx="98" cy="385"></circle><circle r="9" cx="766" cy="168"></circle><circle r="4" cx="765" cy="527"></circle><circle r="4" cx="664" cy="14"></circle><circle r="5" cx="805" cy="586"></circle><circle r="4" cx="357" cy="253"></circle><circle r="-2" cx="73" cy="218"></circle><circle r="7" cx="732" cy="59"></circle><circle r="7" cx="705" cy="436"></circle><circle r="5" cx="513" cy="206"></circle><circle r="5" cx="443" cy="476"></circle><circle r="5" cx="801" cy="45"></circle><circle r="1" cx="705" cy="316"></circle><circle r="1" cx="471" cy="434"></circle><circle r="9" cx="533" cy="384"></circle><circle r="-2" cx="319" cy="550"></circle><circle r="3" cx="362" cy="372"></circle><circle r="9" cx="670" cy="471"></circle><circle r="6" cx="221" cy="136"></circle><circle r="1" cx="481" cy="291"></circle><circle r="-2" cx="607" cy="495"></circle><circle r="9" cx="639" cy="189"></circle><circle r="-2" cx="56" cy="17"></circle><circle r="0" cx="44" cy="127"></circle><circle r="2" cx="617" cy="144"></circle><circle r="-2" cx="838" cy="562"></circle><circle r="-1" cx="714" cy="291"></circle><circle r="6" cx="269" cy="30"></circle><circle r="10" cx="79" cy="54"></circle><circle r="8" cx="261" cy="359"></circle><circle r="3" cx="99" cy="274"></circle><circle r="6" cx="102" cy="441"></circle><circle r="5" cx="636" cy="574"></circle><circle r="4" cx="788" cy="205"></circle><circle r="6" cx="529" cy="343"></circle><circle r="8" cx="711" cy="127"></circle><circle r="6" cx="857" cy="325"></circle><circle r="8" cx="190" cy="419"></circle><circle r="7" cx="243" cy="266"></circle><circle r="10" cx="474" cy="469"></circle><circle r="-2" cx="188" cy="23"></circle><circle r="1" cx="586" cy="19"></circle><circle r="10" cx="382" cy="153"></circle><circle r="1" cx="333" cy="373"></circle><circle r="8" cx="663" cy="259"></circle><circle r="4" cx="564" cy="46"></circle><circle r="-1" cx="313" cy="32"></circle><circle r="-2" cx="256" cy="586"></circle><circle r="8" cx="208" cy="460"></circle><circle r="-2" cx="384" cy="518"></circle><circle r="9" cx="169" cy="146"></circle><circle r="-1" cx="590" cy="250"></circle><circle r="0" cx="825" cy="124"></circle><circle r="2" cx="111" cy="110"></circle><circle r="10" cx="653" cy="110"></circle><circle r="5" cx="343" cy="586"></circle><circle r="8" cx="491" cy="73"></circle><circle r="10" cx="391" cy="280"></circle><circle r="3" cx="418" cy="146"></circle><circle r="6" cx="245" cy="537"></circle><circle r="7" cx="163" cy="505"></circle><circle r="2" cx="254" cy="468"></circle><circle r="6" cx="579" cy="448"></circle><circle r="-2" cx="189" cy="376"></circle><circle r="6" cx="488" cy="576"></circle><circle r="4" cx="136" cy="402"></circle><circle r="5" cx="594" cy="210"></circle><circle r="-1" cx="165" cy="105"></circle><circle r="3" cx="395" cy="364"></circle><circle r="1" cx="369" cy="304"></circle><circle r="9" cx="279" cy="57"></circle><circle r="-2" cx="237" cy="200"></circle><circle r="0" cx="615" cy="458"></circle><circle r="1" cx="342" cy="165"></circle><circle r="5" cx="197" cy="120"></circle><circle r="-1" cx="783" cy="65"></circle><circle r="-1" cx="635" cy="393"></circle><circle r="-2" cx="21" cy="200"></circle><circle r="3" cx="483" cy="366"></circle><circle r="2" cx="168" cy="76"></circle><circle r="-2" cx="883" cy="149"></circle><circle r="7" cx="744" cy="35"></circle><circle r="2" cx="144" cy="15"></circle><circle r="2" cx="34" cy="274"></circle><circle r="9" cx="838" cy="273"></circle><circle r="10" cx="376" cy="463"></circle><circle r="2" cx="471" cy="265"></circle><circle r="10" cx="806" cy="93"></circle><circle r="5" cx="546" cy="236"></circle><circle r="3" cx="165" cy="245"></circle><circle r="9" cx="792" cy="494"></circle><circle r="5" cx="883" cy="112"></circle><circle r="8" cx="193" cy="167"></circle><circle r="-1" cx="313" cy="258"></circle><circle r="1" cx="302" cy="186"></circle><circle r="1" cx="737" cy="377"></circle><circle r="7" cx="198" cy="546"></circle><circle r="2" cx="538" cy="446"></circle><circle r="4" cx="686" cy="102"></circle><circle r="9" cx="555" cy="316"></circle><circle r="-1" cx="444" cy="131"></circle><circle r="1" cx="542" cy="502"></circle><circle r="2" cx="445" cy="256"></circle><circle r="-1" cx="53" cy="432"></circle><circle r="0" cx="335" cy="233"></circle><circle r="5" cx="673" cy="572"></circle><circle r="8" cx="58" cy="335"></circle><circle r="7" cx="744" cy="218"></circle><circle r="0" cx="866" cy="366"></circle><circle r="2" cx="543" cy="557"></circle><circle r="3" cx="404" cy="311"></circle><circle r="2" cx="87" cy="312"></circle><circle r="-2" cx="886" cy="431"></circle><circle r="-1" cx="411" cy="15"></circle><circle r="5" cx="286" cy="406"></circle><circle r="8" cx="419" cy="574"></circle><circle r="3" cx="20" cy="174"></circle><circle r="10" cx="525" cy="83"></circle><circle r="7" cx="870" cy="466"></circle><circle r="1" cx="292" cy="364"></circle><circle r="6" cx="491" cy="233"></circle><circle r="7" cx="745" cy="506"></circle><circle r="8" cx="53" cy="252"></circle><circle r="6" cx="812" cy="149"></circle><circle r="2" cx="759" cy="395"></circle><circle r="0" cx="71" cy="112"></circle><circle r="5" cx="85" cy="513"></circle><circle r="10" cx="884" cy="204"></circle><circle r="4" cx="168" cy="577"></circle><circle r="6" cx="103" cy="479"></circle><circle r="4" cx="549" cy="189"></circle><circle r="0" cx="175" cy="288"></circle><circle r="9" cx="150" cy="175"></circle><circle r="5" cx="665" cy="498"></circle><circle r="10" cx="441" cy="311"></circle><circle r="5" cx="130" cy="580"></circle><circle r="-2" cx="817" cy="338"></circle><circle r="-1" cx="84" cy="182"></circle><circle r="7" cx="788" cy="376"></circle><circle r="6" cx="831" cy="478"></circle><circle r="8" cx="791" cy="245"></circle><circle r="3" cx="390" cy="423"></circle><circle r="10" cx="123" cy="223"></circle><circle r="1" cx="610" cy="374"></circle><circle r="3" cx="757" cy="428"></circle><circle r="7" cx="649" cy="298"></circle><circle r="-1" cx="318" cy="520"></circle><circle r="0" cx="251" cy="394"></circle><circle r="9" cx="208" cy="577"></circle><circle r="9" cx="459" cy="392"></circle><circle r="10" cx="571" cy="546"></circle><circle r="7" cx="556" cy="129"></circle><circle r="2" cx="836" cy="448"></circle><circle r="3" cx="416" cy="393"></circle><circle r="8" cx="270" cy="310"></circle><circle r="-1" cx="110" cy="362"></circle><circle r="-2" cx="236" cy="87"></circle><circle r="3" cx="317" cy="464"></circle><circle r="2" cx="861" cy="64"></circle><circle r="7" cx="22" cy="50"></circle><circle r="5" cx="443" cy="532"></circle><circle r="3" cx="835" cy="221"></circle><circle r="4" cx="210" cy="310"></circle><circle r="3" cx="770" cy="33"></circle><circle r="-2" cx="735" cy="567"></circle><circle r="7" cx="266" cy="513"></circle><circle r="3" cx="75" cy="478"></circle><circle r="10" cx="174" cy="476"></circle><circle r="2" cx="320" cy="289"></circle><circle r="9" cx="570" cy="360"></circle><circle r="3" cx="485" cy="109"></circle><circle r="3" cx="498" cy="164"></circle><circle r="1" cx="501" cy="45"></circle><circle r="1" cx="732" cy="90"></circle><circle r="-1" cx="821" cy="27"></circle><circle r="1" cx="690" cy="404"></circle><circle r="3" cx="185" cy="54"></circle><circle r="2" cx="560" cy="288"></circle><circle r="1" cx="543" cy="411"></circle><circle r="10" cx="124" cy="154"></circle><circle r="5" cx="56" cy="580"></circle><circle r="10" cx="833" cy="73"></circle><circle r="-2" cx="18" cy="331"></circle><circle r="2" cx="222" cy="363"></circle><circle r="2" cx="728" cy="331"></circle><circle r="1" cx="763" cy="103"></circle><circle r="3" cx="522" cy="310"></circle><circle r="10" cx="848" cy="175"></circle><circle r="8" cx="60" cy="531"></circle><circle r="7" cx="809" cy="399"></circle><circle r="6" cx="129" cy="192"></circle><circle r="9" cx="385" cy="54"></circle><circle r="4" cx="565" cy="78"></circle><circle r="8" cx="633" cy="266"></circle><circle r="6" cx="216" cy="509"></circle><circle r="10" cx="760" cy="313"></circle><circle r="8" cx="47" cy="185"></circle><circle r="9" cx="157" cy="433"></circle><circle r="-1" cx="335" cy="427"></circle><circle r="0" cx="358" cy="209"></circle><circle r="-2" cx="277" cy="484"></circle><circle r="2" cx="323" cy="124"></circle><circle r="7" cx="690" cy="521"></circle><circle r="8" cx="31" cy="561"></circle><circle r="4" cx="660" cy="417"></circle><circle r="3" cx="459" cy="565"></circle><circle r="1" cx="514" cy="432"></circle><circle r="1" cx="386" cy="246"></circle><circle r="2" cx="101" cy="587"></circle><circle r="6" cx="421" cy="213"></circle><circle r="5" cx="110" cy="22"></circle><circle r="10" cx="582" cy="412"></circle><circle r="-1" cx="781" cy="330"></circle><circle r="9" cx="299" cy="158"></circle><circle r="4" cx="700" cy="159"></circle><circle r="0" cx="635" cy="25"></circle><circle r="10" cx="779" cy="448"></circle><circle r="6" cx="682" cy="134"></circle><circle r="5" cx="626" cy="235"></circle><circle r="0" cx="412" cy="469"></circle><circle r="7" cx="14" cy="470"></circle><circle r="1" cx="474" cy="332"></circle><circle r="8" cx="177" cy="324"></circle><circle r="-2" cx="13" cy="399"></circle><circle r="4" cx="447" cy="33"></circle><circle r="8" cx="347" cy="81"></circle><circle r="6" cx="869" cy="256"></circle><circle r="-2" cx="98" cy="238"></circle><circle r="4" cx="156" cy="219"></circle><circle r="4" cx="600" cy="67"></circle><circle r="5" cx="701" cy="347"></circle><circle r="-2" cx="532" cy="271"></circle><circle r="5" cx="756" cy="77"></circle><circle r="10" cx="810" cy="554"></circle><circle r="3" cx="654" cy="525"></circle><circle r="4" cx="728" cy="191"></circle><circle r="2" cx="524" cy="157"></circle><circle r="-1" cx="279" cy="84"></circle><circle r="9" cx="242" cy="59"></circle><circle r="3" cx="672" cy="185"></circle><circle r="7" cx="678" cy="331"></circle><circle r="6" cx="17" cy="434"></circle><circle r="6" cx="360" cy="34"></circle><circle r="2" cx="285" cy="243"></circle><circle r="2" cx="426" cy="72"></circle><circle r="-2" cx="48" cy="57"></circle><circle r="8" cx="427" cy="99"></circle><circle r="2" cx="823" cy="195"></circle><circle r="4" cx="338" cy="53"></circle><circle r="3" cx="384" cy="328"></circle><circle r="1" cx="487" cy="199"></circle><circle r="10" cx="884" cy="491"></circle><circle r="9" cx="809" cy="300"></circle><circle r="2" cx="129" cy="505"></circle><circle r="1" cx="528" cy="33"></circle><circle r="10" cx="82" cy="361"></circle><circle r="7" cx="655" cy="214"></circle><circle r="6" cx="283" cy="447"></circle><circle r="0" cx="518" cy="567"></circle><circle r="2" cx="568" cy="484"></circle><circle r="6" cx="220" cy="337"></circle><circle r="4" cx="430" cy="445"></circle><circle r="-1" cx="757" cy="136"></circle><circle r="9" cx="25" cy="79"></circle><circle r="2" cx="283" cy="580"></circle><circle r="-1" cx="267" cy="426"></circle><circle r="6" cx="773" cy="552"></circle><circle r="0" cx="346" cy="532"></circle><circle r="1" cx="698" cy="260"></circle><circle r="6" cx="405" cy="540"></circle><circle r="3" cx="516" cy="489"></circle><circle r="0" cx="236" cy="491"></circle><circle r="4" cx="164" cy="407"></circle><circle r="-2" cx="78" cy="422"></circle><circle r="3" cx="483" cy="19"></circle><circle r="7" cx="208" cy="195"></circle><circle r="6" cx="327" cy="342"></circle><circle r="6" cx="641" cy="323"></circle><circle r="8" cx="698" cy="63"></circle><circle r="9" cx="762" cy="350"></circle><circle r="4" cx="510" cy="362"></circle><circle r="6" cx="307" cy="72"></circle><circle r="3" cx="401" cy="171"></circle><circle r="-1" cx="207" cy="259"></circle><circle r="4" cx="362" cy="420"></circle><circle r="4" cx="328" cy="494"></circle><circle r="7" cx="375" cy="113"></circle><circle r="4" cx="378" cy="15"></circle><circle r="9" cx="886" cy="585"></circle><circle r="10" cx="722" cy="465"></circle><circle r="9" cx="740" cy="164"></circle><circle r="10" cx="550" cy="17"></circle><circle r="10" cx="216" cy="36"></circle><circle r="4" cx="699" cy="583"></circle><circle r="5" cx="585" cy="128"></circle><circle r="8" cx="587" cy="286"></circle><circle r="7" cx="245" cy="324"></circle><circle r="3" cx="116" cy="64"></circle><circle r="-2" cx="99" cy="85"></circle><circle r="7" cx="96" cy="152"></circle><circle r="1" cx="473" cy="513"></circle><circle r="-1" cx="414" cy="343"></circle><circle r="9" cx="785" cy="288"></circle><circle r="0" cx="350" cy="458"></circle><circle r="8" cx="640" cy="440"></circle><circle r="6" cx="122" cy="260"></circle><circle r="5" cx="47" cy="95"></circle><circle r="6" cx="853" cy="18"></circle><circle r="8" cx="591" cy="566"></circle><circle r="9" cx="664" cy="55"></circle><circle r="5" cx="46" cy="458"></circle><circle r="4" cx="844" cy="516"></circle><circle r="7" cx="446" cy="225"></circle><circle r="7" cx="243" cy="118"></circle><circle r="9" cx="268" cy="165"></circle><circle r="10" cx="283" cy="116"></circle><circle r="4" cx="828" cy="373"></circle><circle r="0" cx="597" cy="345"></circle><circle r="10" cx="59" cy="309"></circle><circle r="2" cx="780" cy="412"></circle><circle r="5" cx="728" cy="535"></circle><circle r="7" cx="731" cy="407"></circle><circle r="-1" cx="471" cy="542"></circle><circle r="4" cx="400" cy="101"></circle><circle r="9" cx="193" cy="93"></circle><circle r="6" cx="104" cy="412"></circle><circle r="2" cx="138" cy="536"></circle><circle r="4" cx="411" cy="256"></circle><circle r="9" cx="809" cy="267"></circle><circle r="-1" cx="13" cy="114"></circle><circle r="-1" cx="801" cy="174"></circle><circle r="10" cx="27" cy="234"></circle><circle r="0" cx="603" cy="169"></circle><circle r="4" cx="468" cy="50"></circle><circle r="-1" cx="701" cy="33"></circle><circle r="6" cx="666" cy="86"></circle><circle r="4" cx="492" cy="400"></circle><circle r="2" cx="273" cy="274"></circle><circle r="0" cx="746" cy="263"></circle><circle r="-2" cx="427" cy="179"></circle><circle r="3" cx="851" cy="105"></circle><circle r="0" cx="187" cy="231"></circle><circle r="-1" cx="763" cy="474"></circle><circle r="7" cx="341" cy="309"></circle><circle r="10" cx="807" cy="432"></circle><circle r="8" cx="428" cy="284"></circle><circle r="-2" cx="188" cy="520"></circle><circle r="7" cx="787" cy="129"></circle><circle r="-2" cx="886" cy="286"></circle><circle r="9" cx="656" cy="151"></circle><circle r="1" cx="43" cy="403"></circle><circle r="3" cx="506" cy="462"></circle><circle r="3" cx="675" cy="441"></circle><circle r="-2" cx="865" cy="224"></circle><circle r="8" cx="472" cy="139"></circle><circle r="1" cx="554" cy="161"></circle><circle r="2" cx="619" cy="113"></circle><circle r="0" cx="278" cy="199"></circle><circle r="5" cx="153" cy="348"></circle><circle r="6" cx="139" cy="117"></circle><circle r="0" cx="122" cy="338"></circle><circle r="-1" cx="502" cy="270"></circle><circle r="-1" cx="445" cy="158"></circle><circle r="8" cx="152" cy="53"></circle><circle r="1" cx="584" cy="313"></circle><circle r="-1" cx="312" cy="391"></circle><circle r="8" cx="288" cy="532"></circle><circle r="1" cx="68" cy="153"></circle><circle r="-1" cx="507" cy="123"></circle><circle r="6" cx="347" cy="558"></circle><circle r="1" cx="569" cy="514"></circle><circle r="10" cx="687" cy="285"></circle><circle r="4" cx="423" cy="419"></circle><circle r="1" cx="569" cy="389"></circle><circle r="2" cx="532" cy="109"></circle><circle r="10" cx="574" cy="229"></circle><circle r="5" cx="345" cy="399"></circle><circle r="10" cx="809" cy="223"></circle><circle r="8" cx="636" cy="483"></circle><circle r="7" cx="883" cy="522"></circle><circle r="5" cx="843" cy="422"></circle><circle r="-1" cx="257" cy="225"></circle><circle r="0" cx="612" cy="430"></circle><circle r="1" cx="16" cy="522"></circle><circle r="3" cx="388" cy="392"></circle><circle r="1" cx="626" cy="53"></circle><circle r="0" cx="241" cy="439"></circle><circle r="8" cx="234" cy="297"></circle><circle r="-2" cx="886" cy="398"></circle><circle r="3" cx="580" cy="184"></circle><circle r="5" cx="391" cy="212"></circle><circle r="-1" cx="852" cy="148"></circle><circle r="7" cx="770" cy="583"></circle><circle r="8" cx="139" cy="284"></circle><circle r="6" cx="816" cy="527"></circle><circle r="8" cx="737" cy="119"></circle><circle r="-2" cx="885" cy="22"></circle><circle r="1" cx="180" cy="193"></circle><circle r="5" cx="16" cy="17"></circle><circle r="2" cx="538" cy="585"></circle><circle r="-2" cx="568" cy="105"></circle><circle r="3" cx="565" cy="583"></circle><circle r="5" cx="245" cy="16"></circle><circle r="3" cx="517" cy="245"></circle><circle r="5" cx="600" cy="541"></circle><circle r="3" cx="164" cy="543"></circle><circle r="-1" cx="308" cy="435"></circle><circle r="-2" cx="645" cy="364"></circle><circle r="6" cx="315" cy="576"></circle><circle r="10" cx="67" cy="283"></circle><circle r="3" cx="860" cy="296"></circle><circle r="0" cx="268" cy="555"></circle><circle r="1" cx="712" cy="214"></circle><circle r="8" cx="187" cy="349"></circle><circle r="8" cx="349" cy="283"></circle><circle r="0" cx="312" cy="315"></circle><circle r="10" cx="293" cy="505"></circle><circle r="4" cx="885" cy="79"></circle><circle r="8" cx="238" cy="566"></circle><circle r="5" cx="161" cy="377"></circle><circle r="10" cx="333" cy="192"></circle><circle r="7" cx="369" cy="178"></circle><circle r="5" cx="361" cy="344"></circle><circle r="0" cx="845" cy="348"></circle><circle r="2" cx="71" cy="79"></circle><circle r="-1" cx="196" cy="491"></circle><circle r="4" cx="374" cy="81"></circle><circle r="4" cx="339" cy="16"></circle><circle r="2" cx="14" cy="365"></circle><circle r="10" cx="67" cy="389"></circle><circle r="5" cx="581" cy="155"></circle><circle r="0" cx="357" cy="141"></circle><circle r="-1" cx="417" cy="47"></circle><circle r="10" cx="858" cy="580"></circle><circle r="10" cx="98" cy="209"></circle><circle r="6" cx="690" cy="551"></circle><circle r="2" cx="21" cy="147"></circle><circle r="8" cx="213" cy="71"></circle><circle r="6" cx="691" cy="495"></circle><circle r="9" cx="222" cy="396"></circle><circle r="0" cx="609" cy="301"></circle><circle r="4" cx="721" cy="15"></circle><circle r="6" cx="886" cy="314"></circle><circle r="-1" cx="392" cy="491"></circle><circle r="0" cx="886" cy="50"></circle><circle r="7" cx="662" cy="388"></circle><circle r="-1" cx="109" cy="526"></circle><circle r="-2" cx="13" cy="580"></circle><circle r="9" cx="397" cy="131"></circle><circle r="-2" cx="499" cy="323"></circle><circle r="8" cx="804" cy="467"></circle><circle r="6" cx="602" cy="40"></circle><circle r="4" cx="742" cy="290"></circle><circle r="9" cx="761" cy="240"></circle><circle r="6" cx="132" cy="445"></circle><circle r="9" cx="537" cy="59"></circle><circle r="5" cx="757" cy="194"></circle><circle r="-2" cx="598" cy="95"></circle><circle r="9" cx="543" cy="475"></circle><circle r="-1" cx="83" cy="21"></circle><circle r="0" cx="592" cy="471"></circle><circle r="-2" cx="292" cy="293"></circle><circle r="1" cx="455" cy="287"></circle><circle r="2" cx="708" cy="382"></circle><circle r="5" cx="700" cy="189"></circle><circle r="5" cx="47" cy="212"></circle><circle r="2" cx="608" cy="401"></circle><circle r="4" cx="293" cy="14"></circle><circle r="7" cx="877" cy="178"></circle><circle r="-1" cx="732" cy="437"></circle><circle r="7" cx="842" cy="44"></circle><circle r="1" cx="380" cy="585"></circle><circle r="-1" cx="834" cy="310"></circle><circle r="-1" cx="181" cy="444"></circle><circle r="5" cx="696" cy="464"></circle><circle r="5" cx="543" cy="530"></circle><circle r="1" cx="855" cy="489"></circle><circle r="3" cx="447" cy="338"></circle><circle r="5" cx="826" cy="246"></circle><circle r="7" cx="74" cy="450"></circle><circle r="3" cx="608" cy="586"></circle><circle r="5" cx="448" cy="502"></circle><circle r="3" cx="69" cy="556"></circle><circle r="1" cx="347" cy="114"></circle><circle r="2" cx="499" cy="509"></circle></g></svg>